<svg id="Layer_1" data-name="Layer 1" xmlns="http://www.w3.org/2000/svg" viewBox="0 0 200 30"><defs><style>.cls-1{fill:#050d4e;}.cls-2{fill:#f56507;}</style></defs><title>logo</title><path class="cls-1" d="M29.72,2H38l10.5,25.09h-9l-1.32-3.34H29.4l-1.28,3.34h-8.9Zm6.34,15.84-2.28-6.05L31.5,17.84Z"/><path class="cls-1" d="M49.51,2.18H58.2l5.34,8.75,5.34-8.75h8.68V27.09H69.27V14.74l-5.73,8.87H63.4l-5.73-8.87V27.09H49.51Z"/><path class="cls-1" d="M80.49,2.18h8.33V27.09H80.49Z"/><path class="cls-1" d="M91.74,2.18h12.17c4.45,0,7.23,1.1,9,2.85a7.74,7.74,0,0,1,2.28,5.9V11a8,8,0,0,1-4.91,7.61l5.8,8.47h-9.51L101.85,20h-1.78v7.11H91.74ZM103.66,14c2,0,3.2-.89,3.2-2.42v-.07c0-1.6-1.21-2.39-3.16-2.39h-3.63V14Z"/><path class="cls-1" d="M117.19,2.18h21.25V9H125.38v2.53h-.59v6h.59v2.7h13.24v6.83H117.19Z"/><path class="cls-1" d="M165.46,2.18l-8.08,12.14,8.44,12.77h-9.47l-3.95-6.47-4,6.47h-9.29l8.44-12.67L139.48,2.18h9.46l3.6,5.94,3.63-5.94Z"/><polygon class="cls-2" points="138.47 11.43 138.47 17.61 125.38 17.61 125.38 18.57 118.23 14.45 125.38 10.31 125.38 11.43 138.47 11.43"/></svg>