<svg id="Layer_1" data-name="Layer 1" xmlns="http://www.w3.org/2000/svg" viewBox="0 0 200 30"><defs><style>.cls-1{fill:#fff;}.cls-2{fill:#f56507;}</style></defs><title>logo</title><path class="cls-1" d="M18.72,2H27l10.5,25.09h-9l-1.32-3.34H18.4l-1.28,3.34H8.22Zm6.34,15.84-2.28-6.05L20.5,17.84Z"/><path class="cls-1" d="M38.51,2.18H47.2l5.34,8.75,5.34-8.75h8.68V27.09H58.27V14.74l-5.73,8.87H52.4l-5.73-8.87V27.09H38.51Z"/><path class="cls-1" d="M69.49,2.18h8.33V27.09H69.49Z"/><path class="cls-1" d="M80.74,2.18H92.91c4.45,0,7.23,1.1,9,2.85a7.74,7.74,0,0,1,2.28,5.9V11a8,8,0,0,1-4.91,7.61l5.8,8.47H95.54L90.85,20H89.07v7.11H80.74ZM92.66,14c2,0,3.2-.89,3.2-2.42v-.07c0-1.6-1.21-2.39-3.16-2.39H89.07V14Z"/><path class="cls-1" d="M106.19,2.18h21.25V9H114.38v2.53h-.59v6h.59v2.7h13.24v6.83H106.19Z"/><path class="cls-1" d="M154.46,2.18l-8.08,12.14,8.44,12.77h-9.47l-3.95-6.47-4,6.47h-9.29l8.44-12.67L128.48,2.18h9.46l3.6,5.94,3.63-5.94Z"/><polygon class="cls-2" points="127.47 11.43 127.47 17.61 114.38 17.61 114.38 18.57 107.23 14.45 114.38 10.31 114.38 11.43 127.47 11.43"/></svg>